<mxfile host="app.diagrams.net" agent="Mozilla/5.0 (Windows NT 10.0; Win64; x64) AppleWebKit/537.36 (KHTML, like Gecko) Chrome/137.0.0.0 Safari/537.36" version="27.1.6">
  <diagram name="Sequence Diagram" id="Dwz1fxvn2qbR_SDhqMNQ">
    <mxGraphModel grid="1" page="1" gridSize="10" guides="1" tooltips="1" connect="1" arrows="1" fold="1" pageScale="1" pageWidth="827" pageHeight="1169" math="0" shadow="0">
      <root>
        <mxCell id="0" />
        <mxCell id="1" parent="0" />
        <mxCell id="sJ-FfOrLBQY5Moq6zbSi-1" value="Administrador" style="rounded=1;whiteSpace=wrap;html=1;align=center;verticalAlign=middle;" vertex="1" parent="1">
          <mxGeometry x="54" y="230" width="120" height="30" as="geometry" />
        </mxCell>
        <mxCell id="sJ-FfOrLBQY5Moq6zbSi-2" value="Sistema" style="rounded=1;whiteSpace=wrap;html=1;align=center;verticalAlign=middle;" vertex="1" parent="1">
          <mxGeometry x="354" y="230" width="120" height="30" as="geometry" />
        </mxCell>
        <mxCell id="sJ-FfOrLBQY5Moq6zbSi-3" value="Base de Datos" style="rounded=1;whiteSpace=wrap;html=1;align=center;verticalAlign=middle;" vertex="1" parent="1">
          <mxGeometry x="654" y="230" width="120" height="30" as="geometry" />
        </mxCell>
        <mxCell id="sJ-FfOrLBQY5Moq6zbSi-4" style="dashed=1;endArrow=none;" edge="1" parent="1" source="duoqmCHqXbp8XHJtNqoQ-13" target="sJ-FfOrLBQY5Moq6zbSi-24">
          <mxGeometry relative="1" as="geometry">
            <mxPoint x="114" y="260" as="sourcePoint" />
            <mxPoint x="114" y="910" as="targetPoint" />
          </mxGeometry>
        </mxCell>
        <mxCell id="sJ-FfOrLBQY5Moq6zbSi-5" style="dashed=1;endArrow=none;exitX=0.5;exitY=1;exitDx=0;exitDy=0;" edge="1" parent="1" source="sJ-FfOrLBQY5Moq6zbSi-48" target="sJ-FfOrLBQY5Moq6zbSi-25">
          <mxGeometry relative="1" as="geometry">
            <mxPoint x="414" y="770" as="sourcePoint" />
            <mxPoint x="414" y="910" as="targetPoint" />
          </mxGeometry>
        </mxCell>
        <mxCell id="sJ-FfOrLBQY5Moq6zbSi-6" style="dashed=1;endArrow=none;" edge="1" parent="1" source="duoqmCHqXbp8XHJtNqoQ-10" target="sJ-FfOrLBQY5Moq6zbSi-27">
          <mxGeometry relative="1" as="geometry">
            <mxPoint x="714" y="730" as="sourcePoint" />
            <mxPoint x="714" y="910" as="targetPoint" />
          </mxGeometry>
        </mxCell>
        <mxCell id="sJ-FfOrLBQY5Moq6zbSi-7" value="1. Pulsar el apartado &quot;Recursos&quot;" style="endArrow=block;html=1;" edge="1" parent="1">
          <mxGeometry x="-0.0267" y="10" relative="1" as="geometry">
            <mxPoint x="114" y="290" as="sourcePoint" />
            <mxPoint x="414" y="290" as="targetPoint" />
            <mxPoint as="offset" />
          </mxGeometry>
        </mxCell>
        <mxCell id="sJ-FfOrLBQY5Moq6zbSi-9" value="2.&amp;nbsp;Consultar&amp;nbsp;lista&amp;nbsp;de&amp;nbsp;recursos" style="endArrow=block;html=1;" edge="1" parent="1">
          <mxGeometry x="-0.0267" y="10" relative="1" as="geometry">
            <mxPoint x="414" y="340" as="sourcePoint" />
            <mxPoint x="714" y="340" as="targetPoint" />
            <mxPoint as="offset" />
          </mxGeometry>
        </mxCell>
        <mxCell id="sJ-FfOrLBQY5Moq6zbSi-10" value="3.&amp;nbsp;Devolver&amp;nbsp;datos&amp;nbsp;de&amp;nbsp;recursos" style="endArrow=block;html=1;" edge="1" parent="1">
          <mxGeometry x="-0.04" y="-10" relative="1" as="geometry">
            <mxPoint x="714" y="380" as="sourcePoint" />
            <mxPoint x="414" y="380" as="targetPoint" />
            <mxPoint as="offset" />
          </mxGeometry>
        </mxCell>
        <mxCell id="sJ-FfOrLBQY5Moq6zbSi-11" value="4..&amp;nbsp;Mostrar&amp;nbsp;listado&amp;nbsp;de&amp;nbsp;recursos" style="endArrow=block;html=1;" edge="1" parent="1">
          <mxGeometry x="0.0267" y="-10" relative="1" as="geometry">
            <mxPoint x="414" y="430" as="sourcePoint" />
            <mxPoint x="114" y="430" as="targetPoint" />
            <mxPoint as="offset" />
          </mxGeometry>
        </mxCell>
        <mxCell id="sJ-FfOrLBQY5Moq6zbSi-12" value="6. Registrar un nuevo recurso" style="endArrow=block;html=1;entryX=0;entryY=0.25;entryDx=0;entryDy=0;" edge="1" parent="1" target="duoqmCHqXbp8XHJtNqoQ-1">
          <mxGeometry x="0.04" y="10" relative="1" as="geometry">
            <mxPoint x="110" y="480" as="sourcePoint" />
            <mxPoint x="414" y="490" as="targetPoint" />
            <mxPoint as="offset" />
          </mxGeometry>
        </mxCell>
        <mxCell id="sJ-FfOrLBQY5Moq6zbSi-13" value="7. Pulsar el botón &quot;Guardar&quot;" style="endArrow=block;html=1;entryX=0;entryY=0.25;entryDx=0;entryDy=0;" edge="1" parent="1" target="sJ-FfOrLBQY5Moq6zbSi-46">
          <mxGeometry x="0.04" y="10" relative="1" as="geometry">
            <mxPoint x="117" y="530" as="sourcePoint" />
            <mxPoint x="411" y="520" as="targetPoint" />
            <mxPoint as="offset" />
          </mxGeometry>
        </mxCell>
        <mxCell id="sJ-FfOrLBQY5Moq6zbSi-14" value="8. Validar datos del recurso" style="endArrow=block;html=1;entryX=0.5;entryY=0.333;entryDx=0;entryDy=0;entryPerimeter=0;" edge="1" parent="1" target="duoqmCHqXbp8XHJtNqoQ-3">
          <mxGeometry x="-0.0267" y="10" relative="1" as="geometry">
            <mxPoint x="414" y="570" as="sourcePoint" />
            <mxPoint x="714" y="570" as="targetPoint" />
            <mxPoint as="offset" />
          </mxGeometry>
        </mxCell>
        <mxCell id="sJ-FfOrLBQY5Moq6zbSi-15" value="9. Resultado de validación" style="endArrow=block;html=1;entryX=1;entryY=0.25;entryDx=0;entryDy=0;" edge="1" parent="1" target="sJ-FfOrLBQY5Moq6zbSi-48">
          <mxGeometry x="0.0354" y="-8" relative="1" as="geometry">
            <mxPoint x="714" y="608" as="sourcePoint" />
            <mxPoint x="414" y="610" as="targetPoint" />
            <mxPoint as="offset" />
          </mxGeometry>
        </mxCell>
        <mxCell id="sJ-FfOrLBQY5Moq6zbSi-23" value="10. Notificación de error: Datos inválidos" style="dashed=1;endArrow=block;html=1;entryX=1;entryY=0.25;entryDx=0;entryDy=0;" edge="1" parent="1" target="sJ-FfOrLBQY5Moq6zbSi-56">
          <mxGeometry x="-0.0035" y="-10" relative="1" as="geometry">
            <mxPoint x="402.5" y="700" as="sourcePoint" />
            <mxPoint x="116.5" y="700" as="targetPoint" />
            <mxPoint as="offset" />
          </mxGeometry>
        </mxCell>
        <mxCell id="sJ-FfOrLBQY5Moq6zbSi-24" value="Administrador" style="rounded=1;whiteSpace=wrap;html=1;align=center;verticalAlign=middle;" vertex="1" parent="1">
          <mxGeometry x="54" y="920" width="120" height="30" as="geometry" />
        </mxCell>
        <mxCell id="sJ-FfOrLBQY5Moq6zbSi-25" value="Sistema" style="rounded=1;whiteSpace=wrap;html=1;align=center;verticalAlign=middle;" vertex="1" parent="1">
          <mxGeometry x="354" y="920" width="120" height="30" as="geometry" />
        </mxCell>
        <mxCell id="sJ-FfOrLBQY5Moq6zbSi-27" value="Sistema" style="rounded=1;whiteSpace=wrap;html=1;align=center;verticalAlign=middle;" vertex="1" parent="1">
          <mxGeometry x="654" y="920" width="120" height="30" as="geometry" />
        </mxCell>
        <mxCell id="sJ-FfOrLBQY5Moq6zbSi-31" value="[Datos no validos]" style="text;html=1;strokeColor=none;fillColor=none;align=left;verticalAlign=middle;whiteSpace=wrap;rounded=0;fontFamily=Verdana;fontSize=11;fontStyle=1;" vertex="1" parent="1">
          <mxGeometry x="354" y="650" width="126" height="20" as="geometry" />
        </mxCell>
        <mxCell id="sJ-FfOrLBQY5Moq6zbSi-37" value="" style="dashed=1;endArrow=none;" edge="1" parent="1" target="sJ-FfOrLBQY5Moq6zbSi-32">
          <mxGeometry relative="1" as="geometry">
            <mxPoint x="414" y="260" as="sourcePoint" />
            <mxPoint x="414" y="910" as="targetPoint" />
          </mxGeometry>
        </mxCell>
        <mxCell id="sJ-FfOrLBQY5Moq6zbSi-32" value="" style="rounded=0;whiteSpace=wrap;html=1;" vertex="1" parent="1">
          <mxGeometry x="411.5" y="290" width="5" height="30" as="geometry" />
        </mxCell>
        <mxCell id="sJ-FfOrLBQY5Moq6zbSi-41" value="" style="dashed=1;endArrow=none;" edge="1" parent="1" source="sJ-FfOrLBQY5Moq6zbSi-32" target="sJ-FfOrLBQY5Moq6zbSi-40">
          <mxGeometry relative="1" as="geometry">
            <mxPoint x="414" y="330" as="sourcePoint" />
            <mxPoint x="414" y="910" as="targetPoint" />
          </mxGeometry>
        </mxCell>
        <mxCell id="sJ-FfOrLBQY5Moq6zbSi-40" value="" style="rounded=0;whiteSpace=wrap;html=1;" vertex="1" parent="1">
          <mxGeometry x="411.5" y="380" width="5" height="30" as="geometry" />
        </mxCell>
        <mxCell id="sJ-FfOrLBQY5Moq6zbSi-43" value="" style="dashed=1;endArrow=none;" edge="1" parent="1" target="sJ-FfOrLBQY5Moq6zbSi-42">
          <mxGeometry relative="1" as="geometry">
            <mxPoint x="714" y="260" as="sourcePoint" />
            <mxPoint x="714" y="910" as="targetPoint" />
          </mxGeometry>
        </mxCell>
        <mxCell id="sJ-FfOrLBQY5Moq6zbSi-42" value="" style="rounded=0;whiteSpace=wrap;html=1;" vertex="1" parent="1">
          <mxGeometry x="711.5" y="340" width="5" height="30" as="geometry" />
        </mxCell>
        <mxCell id="sJ-FfOrLBQY5Moq6zbSi-45" value="" style="dashed=1;endArrow=none;exitX=0.5;exitY=1;exitDx=0;exitDy=0;" edge="1" parent="1" source="sJ-FfOrLBQY5Moq6zbSi-1" target="sJ-FfOrLBQY5Moq6zbSi-44">
          <mxGeometry relative="1" as="geometry">
            <mxPoint x="114" y="350" as="sourcePoint" />
            <mxPoint x="114" y="910" as="targetPoint" />
          </mxGeometry>
        </mxCell>
        <mxCell id="sJ-FfOrLBQY5Moq6zbSi-44" value="" style="rounded=0;whiteSpace=wrap;html=1;" vertex="1" parent="1">
          <mxGeometry x="111.5" y="430" width="5" height="30" as="geometry" />
        </mxCell>
        <mxCell id="sJ-FfOrLBQY5Moq6zbSi-47" value="" style="dashed=1;endArrow=none;" edge="1" parent="1" source="duoqmCHqXbp8XHJtNqoQ-1" target="sJ-FfOrLBQY5Moq6zbSi-46">
          <mxGeometry relative="1" as="geometry">
            <mxPoint x="414" y="450" as="sourcePoint" />
            <mxPoint x="414" y="910" as="targetPoint" />
          </mxGeometry>
        </mxCell>
        <mxCell id="sJ-FfOrLBQY5Moq6zbSi-46" value="" style="rounded=0;whiteSpace=wrap;html=1;" vertex="1" parent="1">
          <mxGeometry x="411" y="520" width="5" height="30" as="geometry" />
        </mxCell>
        <mxCell id="sJ-FfOrLBQY5Moq6zbSi-49" value="" style="dashed=1;endArrow=none;" edge="1" parent="1" source="sJ-FfOrLBQY5Moq6zbSi-46" target="sJ-FfOrLBQY5Moq6zbSi-48">
          <mxGeometry relative="1" as="geometry">
            <mxPoint x="414" y="570" as="sourcePoint" />
            <mxPoint x="414" y="910" as="targetPoint" />
          </mxGeometry>
        </mxCell>
        <mxCell id="sJ-FfOrLBQY5Moq6zbSi-48" value="" style="rounded=0;whiteSpace=wrap;html=1;" vertex="1" parent="1">
          <mxGeometry x="411.5" y="600" width="5" height="30" as="geometry" />
        </mxCell>
        <mxCell id="sJ-FfOrLBQY5Moq6zbSi-51" value="" style="dashed=1;endArrow=none;" edge="1" parent="1" source="duoqmCHqXbp8XHJtNqoQ-3">
          <mxGeometry relative="1" as="geometry">
            <mxPoint x="714" y="410" as="sourcePoint" />
            <mxPoint x="714" y="690" as="targetPoint" />
          </mxGeometry>
        </mxCell>
        <mxCell id="sJ-FfOrLBQY5Moq6zbSi-55" value="" style="dashed=1;endArrow=none;" edge="1" parent="1" source="sJ-FfOrLBQY5Moq6zbSi-44">
          <mxGeometry relative="1" as="geometry">
            <mxPoint x="114" y="490" as="sourcePoint" />
            <mxPoint x="114" y="770" as="targetPoint" />
          </mxGeometry>
        </mxCell>
        <mxCell id="sJ-FfOrLBQY5Moq6zbSi-56" value="" style="rounded=0;whiteSpace=wrap;html=1;" vertex="1" parent="1">
          <mxGeometry x="111.5" y="690" width="5" height="40" as="geometry" />
        </mxCell>
        <mxCell id="duoqmCHqXbp8XHJtNqoQ-2" value="" style="dashed=1;endArrow=none;" edge="1" parent="1" source="sJ-FfOrLBQY5Moq6zbSi-40" target="duoqmCHqXbp8XHJtNqoQ-1">
          <mxGeometry relative="1" as="geometry">
            <mxPoint x="414" y="410" as="sourcePoint" />
            <mxPoint x="414" y="530" as="targetPoint" />
          </mxGeometry>
        </mxCell>
        <mxCell id="duoqmCHqXbp8XHJtNqoQ-1" value="" style="rounded=0;whiteSpace=wrap;html=1;" vertex="1" parent="1">
          <mxGeometry x="411" y="470" width="5" height="30" as="geometry" />
        </mxCell>
        <mxCell id="duoqmCHqXbp8XHJtNqoQ-4" value="" style="dashed=1;endArrow=none;" edge="1" parent="1" source="sJ-FfOrLBQY5Moq6zbSi-42" target="duoqmCHqXbp8XHJtNqoQ-3">
          <mxGeometry relative="1" as="geometry">
            <mxPoint x="714" y="370" as="sourcePoint" />
            <mxPoint x="714" y="690" as="targetPoint" />
          </mxGeometry>
        </mxCell>
        <mxCell id="duoqmCHqXbp8XHJtNqoQ-3" value="" style="rounded=0;whiteSpace=wrap;html=1;" vertex="1" parent="1">
          <mxGeometry x="711.5" y="560" width="5" height="30" as="geometry" />
        </mxCell>
        <mxCell id="duoqmCHqXbp8XHJtNqoQ-5" value="11.&amp;nbsp;Insertar&amp;nbsp;nuevo&amp;nbsp;recurso" style="endArrow=block;html=1;entryX=0;entryY=0.25;entryDx=0;entryDy=0;" edge="1" parent="1" target="duoqmCHqXbp8XHJtNqoQ-10">
          <mxGeometry x="-0.0284" y="9" relative="1" as="geometry">
            <mxPoint x="417" y="780" as="sourcePoint" />
            <mxPoint x="717" y="780" as="targetPoint" />
            <mxPoint as="offset" />
          </mxGeometry>
        </mxCell>
        <mxCell id="duoqmCHqXbp8XHJtNqoQ-6" value="12.&amp;nbsp;Confirmar&amp;nbsp;inserción&amp;nbsp;exitosa" style="endArrow=block;html=1;" edge="1" parent="1">
          <mxGeometry y="-20" relative="1" as="geometry">
            <mxPoint x="710" y="820" as="sourcePoint" />
            <mxPoint x="417" y="820" as="targetPoint" />
            <mxPoint as="offset" />
          </mxGeometry>
        </mxCell>
        <mxCell id="duoqmCHqXbp8XHJtNqoQ-7" value="13.&amp;nbsp;Notificación de éxito: Recurso creado correctamente" style="dashed=1;endArrow=block;html=1;" edge="1" parent="1">
          <mxGeometry x="0.0239" y="-10" relative="1" as="geometry">
            <mxPoint x="410" y="860" as="sourcePoint" />
            <mxPoint x="117" y="860" as="targetPoint" />
            <mxPoint as="offset" />
          </mxGeometry>
        </mxCell>
        <mxCell id="duoqmCHqXbp8XHJtNqoQ-12" value="" style="rounded=0;whiteSpace=wrap;html=1;" vertex="1" parent="1">
          <mxGeometry x="414.5" y="820" width="5" height="30" as="geometry" />
        </mxCell>
        <mxCell id="duoqmCHqXbp8XHJtNqoQ-14" value="frame" style="shape=umlFrame;whiteSpace=wrap;html=1;pointerEvents=0;" vertex="1" parent="1">
          <mxGeometry x="100" y="640" width="630" height="100" as="geometry" />
        </mxCell>
        <mxCell id="duoqmCHqXbp8XHJtNqoQ-15" value="" style="dashed=1;endArrow=none;" edge="1" parent="1" source="sJ-FfOrLBQY5Moq6zbSi-56" target="duoqmCHqXbp8XHJtNqoQ-13">
          <mxGeometry relative="1" as="geometry">
            <mxPoint x="114" y="730" as="sourcePoint" />
            <mxPoint x="114" y="930" as="targetPoint" />
          </mxGeometry>
        </mxCell>
        <mxCell id="duoqmCHqXbp8XHJtNqoQ-13" value="" style="rounded=0;whiteSpace=wrap;html=1;" vertex="1" parent="1">
          <mxGeometry x="111.5" y="860" width="5" height="30" as="geometry" />
        </mxCell>
        <mxCell id="duoqmCHqXbp8XHJtNqoQ-17" value="" style="dashed=1;endArrow=none;" edge="1" parent="1" target="duoqmCHqXbp8XHJtNqoQ-10">
          <mxGeometry relative="1" as="geometry">
            <mxPoint x="714" y="730" as="sourcePoint" />
            <mxPoint x="714" y="930" as="targetPoint" />
          </mxGeometry>
        </mxCell>
        <mxCell id="duoqmCHqXbp8XHJtNqoQ-10" value="" style="rounded=0;whiteSpace=wrap;html=1;" vertex="1" parent="1">
          <mxGeometry x="711.5" y="770" width="5" height="30" as="geometry" />
        </mxCell>
      </root>
    </mxGraphModel>
  </diagram>
</mxfile>
